<!-- Save this code as healthy_mindset_person.svg in your static/images/ directory -->
<svg
    width="500"
    height="500"
    viewBox="0 0 500 500"
    xmlns="http://www.w3.org/2000/svg"
>
    <!-- Background Circle for Softness -->
    <circle cx="250" cy="250" r="240" fill="#e8f5e9" />

    <!-- Person Illustration -->
    <g id="person" transform="translate(150, 150)">
        <!-- Head -->
        <circle cx="100" cy="50" r="40" fill="#0e2326" />

        <!-- Body -->
        <rect x="80" y="90" width="40" height="100" fill="#0e2326" />

        <!-- Arms -->
        <rect x="60" y="90" width="20" height="80" fill="#0e2326" />
        <rect x="120" y="90" width="20" height="80" fill="#0e2326" />

        <!-- Legs -->
        <rect x="80" y="190" width="15" height="80" fill="#0e2326" />
        <rect x="105" y="190" width="15" height="80" fill="#0e2326" />
    </g>

    <!-- Thought Bubble -->
    <g id="thought-bubble" transform="translate(200, 80)">
        <!-- Bubble -->
        <ellipse cx="100" cy="80" rx="80" ry="60" fill="#ffffff" stroke="#0e2326" stroke-width="2" />
        <circle cx="60" cy="120" r="20" fill="#ffffff" stroke="#0e2326" stroke-width="2" />
        <circle cx="30" cy="160" r="15" fill="#ffffff" stroke="#0e2326" stroke-width="2" />

        <!-- Icons inside the Bubble -->
        <!-- Brain Icon -->
        <g transform="translate(30, 30)">
            <path d="M20,10 C20,4 28,4 28,10 C28,16 20,16 20,22 C20,28 28,28 28,34 C28,40 20,40 20,46 C20,52 28,52 28,58 C28,64 20,64 20,70" stroke="#689e4b" stroke-width="2" fill="none" />
            <circle cx="20" cy="10" r="2" fill="#689e4b" />
            <circle cx="28" cy="10" r="2" fill="#689e4b" />
            <circle cx="20" cy="22" r="2" fill="#689e4b" />
            <circle cx="28" cy="22" r="2" fill="#689e4b" />
            <circle cx="20" cy="34" r="2" fill="#689e4b" />
            <circle cx="28" cy="34" r="2" fill="#689e4b" />
            <circle cx="20" cy="46" r="2" fill="#689e4b" />
            <circle cx="28" cy="46" r="2" fill="#689e4b" />
            <circle cx="20" cy="58" r="2" fill="#689e4b" />
            <circle cx="28" cy="58" r="2" fill="#689e4b" />
            <circle cx="20" cy="70" r="2" fill="#689e4b" />
            <circle cx="28" cy="70" r="2" fill="#689e4b" />
        </g>

        <!-- Heart Icon -->
        <g transform="translate(150, 40)">
            <path d="M10,30
                     A20,20 0 0,1 50,30
                     Q50,60 30,80
                     Q10,60 10,30 Z" fill="#689e4b" />
        </g>

        <!-- Leaf Icon -->
        <g transform="translate(60, 100)">
            <path d="M10,30
                     Q15,10 30,30
                     Q25,20 40,30
                     Q25,35 40,40
                     Q15,40 10,30 Z" fill="#689e4b" />
        </g>

        <!-- Sun Icon -->
        <g transform="translate(200, 0)">
            <circle cx="50" cy="50" r="15" fill="#ffeb3b" />
            <!-- Rays -->
            <line x1="50" y1="5" x2="50" y2="15" stroke="#ffeb3b" stroke-width="2" />
            <line x1="50" y1="85" x2="50" y2="95" stroke="#ffeb3b" stroke-width="2" />
            <line x1="5" y1="50" x2="15" y2="50" stroke="#ffeb3b" stroke-width="2" />
            <line x1="85" y1="50" x2="95" y2="50" stroke="#ffeb3b" stroke-width="2" />
            <line x1="20" y1="20" x2="28" y2="28" stroke="#ffeb3b" stroke-width="2" />
            <line x1="72" y1="72" x2="80" y2="80" stroke="#ffeb3b" stroke-width="2" />
            <line x1="20" y1="80" x2="28" y2="72" stroke="#ffeb3b" stroke-width="2" />
            <line x1="72" y1="28" x2="80" y2="20" stroke="#ffeb3b" stroke-width="2" />
        </g>
    </g>
</svg>
